<svg xmlns="http://www.w3.org/2000/svg" width="405" height="400"><rect width="405" height="400" x="0" y="0" fill="#FFFFFF" id="backgorund"/><g transform="translate(202.5,200)" id="viz"><path fill="#b8e986" display="" d="M0.9999815328816524,-187.99734050494942A188,188,0,1,1,-120.98636879204672,143.89683306631477L-60.75726341273623,73.03119157315855A95,95,0,1,0,0.9999815328816369,-94.99473689070304Z"><title>аниме-сериал</title></path><path fill="#bcbd22" display="" d="M-122.51029027499565,142.6016436677232A188,188,0,0,1,-187.58713066222475,-12.452646703147796L-94.82285079641827,-5.798876342896114A95,95,0,0,0,-62.28118489568514,71.73600217456699Z"><title>OVA</title></path><path fill="#a2ff39" display="" d="M-187.44404547480602,-14.44748476513644A188,188,0,0,1,-156.20640620190972,-104.61146524871916L-79.20828287657464,-52.45043301770285A95,95,0,0,0,-94.67976560899955,-7.793714404884739Z"><title>аниме-фильм</title></path><path fill="#1f77b4" display="" d="M-155.08471569132126,-106.2672619339656A188,188,0,0,1,-101.51708683346459,-158.2348921093158L-51.71419688573739,-79.69091441603108A95,95,0,0,0,-78.08659236598618,-54.10622970294926Z"><title>anime television series season</title></path><path fill="#50e3c2" display="" d="M-99.82804751284237,-159.30587223882767A188,188,0,0,1,-55.69620350878285,-179.56038793316372L-28.616454945840164,-90.58751849086441A95,95,0,0,0,-50.02515756511525,-80.7618945455429Z"><title>аниме</title></path><path fill="#d62728" display="" d="M-53.78289736654148,-180.14272105988647A188,188,0,0,1,-33.56389359848883,-184.9796341398407L-17.446986261148762,-93.38416712914072A95,95,0,0,0,-26.70314880359889,-91.16985161758713Z"><title>ONA</title></path><path fill="#e377c2" display="" d="M-31.594190128975658,-185.32621819401092A188,188,0,0,1,-21.569487847781005,-186.75855320167915L-11.390746408869319,-94.31463776237935A95,95,0,0,0,-15.477282791635696,-93.7307511833109Z"><title>телевизионное аниме</title></path><path fill="#2ca02c" display="" d="M-19.5815390232513,-186.97744069668107A188,188,0,0,1,-11.180660374942969,-187.66723963862253L-6.143535157301755,-94.80114438007062A95,95,0,0,0,-9.402797584339714,-94.53352525738123Z"><title>оригинальное аниме</title></path><path fill="#9467bd" display="" d="M-9.18363283634718,-187.77555987914712A188,188,0,0,1,-5.8501252362748986,-187.90895677087855L-3.4505862286029365,-94.93731328976492A95,95,0,0,0,-4.146507618706067,-94.9094646205952Z"><title>anime television special</title></path><path fill="#ff7f0e" display="" d="M-3.8508279488916872,-187.9605573627298A188,188,0,0,1,-1.7276244603206525,-187.9920618369938L-1.3676545628770131,-94.99015486352594A95,95,0,0,0,-1.4512889412198295,-94.98891388161617Z"><title>аниме, основанное на манге</title></path><path fill="#17becf" display="" d="M-0.36383103708570924,-187.99964794375668L-0.18385079001671478,-94.99982209923874Z"><title>Евангелион</title></path></g><g id="labels" transform="translate(202.5,200)" text-anchor="middle"><text transform="rotate(90) translate(47.5,0) rotate(180)" style="opacity: 1;"><tspan x="0" y="4" style="font-family: Arial, sans-serif; font-size: 10px; fill: black; font-weight: normal; font-style: italic;"/></text><text transform="rotate(20.180698151950708) translate(142.5,0) rotate(0)" style="opacity: 1;"><tspan x="-36" y="4" style="font-family: Arial, sans-serif; font-size: 22px; fill: black; font-weight: normal; font-style: italic;">аниме-сериал</tspan></text><text transform="rotate(157.23203285420945) translate(142.5,0) rotate(180)" style="opacity: 1;"><tspan x="0" y="4" style="font-family: Arial, sans-serif; font-size: 24px; fill: black; font-weight: normal; font-style: italic;">OVA</tspan></text><text transform="rotate(199.1088295687885) translate(142.5,0) rotate(180)" style="opacity: 1;"><tspan x="33" y="4" style="font-family: Arial, sans-serif; font-size: 22px; fill: black; font-weight: normal; font-style: italic;">аниме-фильм</tspan></text><text transform="rotate(225.8685831622177) translate(142.5,0) rotate(180)" style="opacity: 0;"><tspan x="0" y="4" style="font-family: Arial, sans-serif; font-size: 10px; fill: black; font-weight: normal; font-style: italic;">anime television series season</tspan></text><text transform="rotate(245.347022587269) translate(142.5,0) rotate(180)" style="opacity: 1;"><tspan x="0" y="4" style="font-family: Arial, sans-serif; font-size: 20px; fill: black; font-weight: normal; font-style: italic;">аниме</tspan></text><text transform="rotate(256.5462012320329) translate(142.5,0) rotate(180)" style="opacity: 1;"><tspan x="0" y="4" style="font-family: Arial, sans-serif; font-size: 10px; fill: black; font-weight: normal; font-style: italic;">ONA</tspan></text><text transform="rotate(261.86858316221765) translate(142.5,0) rotate(180)" style="opacity: 0;"><tspan x="0" y="4" style="font-family: Arial, sans-serif; font-size: 10px; fill: black; font-weight: normal; font-style: italic;">телевизионное аниме</tspan></text><text transform="rotate(265.305954825462) translate(142.5,0) rotate(180)" style="opacity: 1;"><tspan x="0" y="4" style="font-family: Arial, sans-serif; font-size: 10px; fill: black; font-weight: normal; font-style: italic;"></tspan></text><text transform="rotate(267.7084188911705) translate(142.5,0) rotate(180)" style="opacity: 0;"><tspan x="0" y="4" style="font-family: Arial, sans-serif; font-size: 10px; fill: black; font-weight: normal; font-style: italic;">anime television special</tspan></text><text transform="rotate(269.1498973305955) translate(142.5,0) rotate(180)" style="opacity: 0;"><tspan x="0" y="4" style="font-family: Arial, sans-serif; font-size: 10px; fill: black; font-weight: normal; font-style: italic;">аниме, основанное на манге</tspan></text><text transform="rotate(269.8891170431212) translate(142.5,0) rotate(180)" style="opacity: 0;"><tspan x="0" y="4" style="font-family: Arial, sans-serif; font-size: 10px; fill: black; font-weight: normal; font-style: italic;">Евангелион</tspan></text></g></svg>
